<?xml version="1.0" standalone="no"?>
<!DOCTYPE svg PUBLIC "-//W3C//DTD SVG 20010904//EN"
 "http://www.w3.org/TR/2001/REC-SVG-20010904/DTD/svg10.dtd">
<svg version="1.0" xmlns="http://www.w3.org/2000/svg"
 width="512.000000pt" height="512.000000pt" viewBox="0 0 512.000000 512.000000"
 preserveAspectRatio="xMidYMid meet">
<metadata>
Created by potrace 1.14, written by Peter Selinger 2001-2017
</metadata>
<g transform="translate(0.000000,512.000000) scale(0.100000,-0.100000)"
fill="#000000" stroke="none">
<path d="M2424 3717 c27 -416 27 -1782 0 -2364 l-5 -123 169 0 c183 0 181 -1
176 55 -25 307 -25 2095 0 2473 l2 42 -173 0 -174 0 5 -83z"/>
<path d="M125 3488 c26 -356 26 -1487 0 -1916 l-5 -72 131 0 131 0 -6 188 c-4
103 -8 329 -11 502 -6 416 -14 762 -20 830 -12 141 -13 190 -7 190 4 0 26 -37
50 -82 88 -174 257 -437 559 -869 82 -118 170 -243 195 -279 25 -36 75 -108
111 -160 37 -52 99 -145 139 -207 l73 -112 109 -1 108 0 -6 118 c-25 516 -26
1354 0 1835 l4 87 -134 0 c-123 0 -135 -2 -132 -17 7 -37 17 -423 22 -813 2
-223 6 -443 8 -490 3 -47 8 -136 12 -197 4 -80 3 -113 -5 -113 -6 0 -11 6 -11
13 0 20 -81 180 -139 276 -28 46 -51 85 -51 87 0 6 -322 485 -405 604 -152
215 -374 548 -400 600 l-25 50 -150 0 -149 0 4 -52z"/>
<path d="M3464 3488 c27 -270 27 -1468 0 -1915 l-4 -73 130 0 c117 0 130 2
131 18 1 17 0 47 -7 207 -1 44 -5 249 -8 455 -9 584 -15 774 -31 978 -2 28 0
52 4 52 4 0 18 -24 31 -52 32 -72 124 -225 239 -398 53 -80 98 -150 101 -156
7 -14 199 -292 281 -407 96 -135 433 -627 455 -664 l18 -33 109 0 108 0 -5
123 c-25 542 -25 1467 0 1830 l6 87 -134 0 -134 0 3 -47 c9 -202 14 -395 18
-758 3 -231 7 -460 10 -510 2 -49 7 -141 10 -202 4 -62 4 -113 1 -113 -3 0
-23 39 -46 87 -75 161 -303 519 -600 943 -138 197 -343 506 -370 558 l-22 42
-150 0 -149 0 5 -52z"/>
</g>
</svg>
